<mxfile host="www.draw.io" modified="2020-03-03T06:10:38.299Z" agent="Mozilla/5.0 (Windows NT 10.0; Win64; x64) AppleWebKit/537.36 (KHTML, like Gecko) Chrome/80.0.3987.122 Safari/537.36" etag="j6I4IkH6DALG4XawL4rl" version="12.7.9" type="github">
  <diagram id="qBqB7yWqQwRtmxhurrX3" name="Page-1">
    <mxGraphModel dx="1019" dy="519" grid="1" gridSize="10" guides="1" tooltips="1" connect="1" arrows="1" fold="1" page="1" pageScale="1" pageWidth="827" pageHeight="1169" math="0" shadow="0">
      <root>
        <mxCell id="0" />
        <mxCell id="1" parent="0" />
        <mxCell id="oBfR3ffEFmptnwIIL1fz-1" value="" style="shape=cube;whiteSpace=wrap;html=1;boundedLbl=1;backgroundOutline=1;darkOpacity=0.05;darkOpacity2=0.1;rotation=90;fontFamily=Times New Roman;" vertex="1" parent="1">
          <mxGeometry x="100" y="570" width="120" height="80" as="geometry" />
        </mxCell>
        <mxCell id="oBfR3ffEFmptnwIIL1fz-10" value="" style="edgeStyle=orthogonalEdgeStyle;rounded=0;orthogonalLoop=1;jettySize=auto;html=1;fontFamily=Times New Roman;" edge="1" parent="1" source="oBfR3ffEFmptnwIIL1fz-1" target="oBfR3ffEFmptnwIIL1fz-4">
          <mxGeometry relative="1" as="geometry" />
        </mxCell>
        <mxCell id="oBfR3ffEFmptnwIIL1fz-14" value="" style="edgeStyle=orthogonalEdgeStyle;rounded=0;orthogonalLoop=1;jettySize=auto;html=1;entryX=0.25;entryY=1;entryDx=0;entryDy=0;fontFamily=Times New Roman;" edge="1" parent="1" source="oBfR3ffEFmptnwIIL1fz-2" target="oBfR3ffEFmptnwIIL1fz-13">
          <mxGeometry relative="1" as="geometry">
            <Array as="points" />
          </mxGeometry>
        </mxCell>
        <mxCell id="oBfR3ffEFmptnwIIL1fz-2" value="" style="shape=cube;whiteSpace=wrap;html=1;boundedLbl=1;backgroundOutline=1;darkOpacity=0.05;darkOpacity2=0.1;rotation=90;fontFamily=Times New Roman;" vertex="1" parent="1">
          <mxGeometry x="400" y="530" width="60" height="160" as="geometry" />
        </mxCell>
        <mxCell id="oBfR3ffEFmptnwIIL1fz-4" value="卷积" style="rounded=0;whiteSpace=wrap;html=1;fontFamily=Times New Roman;fontSize=16;" vertex="1" parent="1">
          <mxGeometry x="240" y="590" width="40" height="40" as="geometry" />
        </mxCell>
        <mxCell id="oBfR3ffEFmptnwIIL1fz-11" value="" style="edgeStyle=orthogonalEdgeStyle;rounded=0;orthogonalLoop=1;jettySize=auto;html=1;fontFamily=Times New Roman;" edge="1" parent="1" source="oBfR3ffEFmptnwIIL1fz-5" target="oBfR3ffEFmptnwIIL1fz-2">
          <mxGeometry relative="1" as="geometry" />
        </mxCell>
        <mxCell id="oBfR3ffEFmptnwIIL1fz-5" value="池化" style="rounded=0;whiteSpace=wrap;html=1;fontFamily=Times New Roman;fontSize=16;" vertex="1" parent="1">
          <mxGeometry x="280" y="590" width="40" height="40" as="geometry" />
        </mxCell>
        <mxCell id="oBfR3ffEFmptnwIIL1fz-19" value="" style="edgeStyle=orthogonalEdgeStyle;rounded=0;orthogonalLoop=1;jettySize=auto;html=1;entryX=0.75;entryY=1;entryDx=0;entryDy=0;fontFamily=Times New Roman;" edge="1" parent="1" source="oBfR3ffEFmptnwIIL1fz-12" target="oBfR3ffEFmptnwIIL1fz-13">
          <mxGeometry relative="1" as="geometry">
            <mxPoint x="510" y="670" as="targetPoint" />
          </mxGeometry>
        </mxCell>
        <mxCell id="oBfR3ffEFmptnwIIL1fz-12" value="池化" style="rounded=0;whiteSpace=wrap;html=1;fontFamily=Times New Roman;fontSize=16;" vertex="1" parent="1">
          <mxGeometry x="305" y="650" width="80" height="40" as="geometry" />
        </mxCell>
        <mxCell id="oBfR3ffEFmptnwIIL1fz-13" value="&lt;font style=&quot;font-size: 19px&quot;&gt;concat&lt;/font&gt;" style="shape=trapezoid;perimeter=trapezoidPerimeter;whiteSpace=wrap;html=1;rotation=90;fontFamily=Times New Roman;fontSize=16;" vertex="1" parent="1">
          <mxGeometry x="520" y="610" width="120" height="60" as="geometry" />
        </mxCell>
        <mxCell id="oBfR3ffEFmptnwIIL1fz-15" value="" style="endArrow=classic;html=1;entryX=0;entryY=0.5;entryDx=0;entryDy=0;fontFamily=Times New Roman;" edge="1" parent="1" target="oBfR3ffEFmptnwIIL1fz-12">
          <mxGeometry width="50" height="50" relative="1" as="geometry">
            <mxPoint x="220" y="610" as="sourcePoint" />
            <mxPoint x="260" y="680" as="targetPoint" />
            <Array as="points">
              <mxPoint x="220" y="670" />
            </Array>
          </mxGeometry>
        </mxCell>
        <mxCell id="oBfR3ffEFmptnwIIL1fz-21" value="" style="shape=cube;whiteSpace=wrap;html=1;boundedLbl=1;backgroundOutline=1;darkOpacity=0.05;darkOpacity2=0.1;rotation=90;fontFamily=Times New Roman;" vertex="1" parent="1">
          <mxGeometry x="667" y="600" width="60" height="80" as="geometry" />
        </mxCell>
        <mxCell id="oBfR3ffEFmptnwIIL1fz-22" value="" style="shape=cube;whiteSpace=wrap;html=1;boundedLbl=1;backgroundOutline=1;darkOpacity=0.05;darkOpacity2=0.1;rotation=90;fontFamily=Times New Roman;" vertex="1" parent="1">
          <mxGeometry x="767" y="560" width="60" height="160" as="geometry" />
        </mxCell>
        <mxCell id="oBfR3ffEFmptnwIIL1fz-24" value="" style="endArrow=classic;html=1;exitX=0.5;exitY=0;exitDx=0;exitDy=0;fontFamily=Times New Roman;" edge="1" parent="1" source="oBfR3ffEFmptnwIIL1fz-13">
          <mxGeometry width="50" height="50" relative="1" as="geometry">
            <mxPoint x="640" y="810" as="sourcePoint" />
            <mxPoint x="656" y="640" as="targetPoint" />
          </mxGeometry>
        </mxCell>
        <mxCell id="oBfR3ffEFmptnwIIL1fz-26" value="&lt;font style=&quot;vertical-align: inherit; font-size: 16px;&quot;&gt;&lt;font style=&quot;vertical-align: inherit; font-size: 16px;&quot;&gt;256*100*32&lt;/font&gt;&lt;/font&gt;" style="text;html=1;strokeColor=none;fillColor=none;align=center;verticalAlign=middle;whiteSpace=wrap;rounded=0;fontFamily=Times New Roman;fontSize=16;" vertex="1" parent="1">
          <mxGeometry x="143" y="528" width="40" height="20" as="geometry" />
        </mxCell>
        <mxCell id="oBfR3ffEFmptnwIIL1fz-27" value="&lt;font style=&quot;vertical-align: inherit; font-size: 16px;&quot;&gt;&lt;font style=&quot;vertical-align: inherit; font-size: 16px;&quot;&gt;&lt;font style=&quot;vertical-align: inherit; font-size: 16px;&quot;&gt;&lt;font style=&quot;vertical-align: inherit; font-size: 16px;&quot;&gt;256 * 50 * 64&lt;/font&gt;&lt;/font&gt;&lt;/font&gt;&lt;/font&gt;" style="text;html=1;strokeColor=none;fillColor=none;align=center;verticalAlign=middle;whiteSpace=wrap;rounded=0;fontFamily=Times New Roman;fontSize=16;" vertex="1" parent="1">
          <mxGeometry x="375" y="555" width="110" height="20" as="geometry" />
        </mxCell>
        <mxCell id="oBfR3ffEFmptnwIIL1fz-28" value="&lt;font style=&quot;vertical-align: inherit; font-size: 16px;&quot;&gt;&lt;font style=&quot;vertical-align: inherit; font-size: 16px;&quot;&gt;&lt;font style=&quot;vertical-align: inherit; font-size: 16px;&quot;&gt;&lt;font style=&quot;vertical-align: inherit; font-size: 16px;&quot;&gt;&lt;font style=&quot;vertical-align: inherit; font-size: 16px;&quot;&gt;&lt;font style=&quot;vertical-align: inherit; font-size: 16px;&quot;&gt;&lt;font style=&quot;vertical-align: inherit; font-size: 16px;&quot;&gt;&lt;font style=&quot;vertical-align: inherit; font-size: 16px;&quot;&gt;256 * 50 * 32&lt;br style=&quot;font-size: 16px;&quot;&gt;&lt;/font&gt;&lt;/font&gt;&lt;/font&gt;&lt;/font&gt;&lt;/font&gt;&lt;/font&gt;&lt;/font&gt;&lt;/font&gt;" style="text;html=1;strokeColor=none;fillColor=none;align=center;verticalAlign=middle;whiteSpace=wrap;rounded=0;fontFamily=Times New Roman;fontSize=16;" vertex="1" parent="1">
          <mxGeometry x="409" y="675" width="110" height="20" as="geometry" />
        </mxCell>
        <mxCell id="oBfR3ffEFmptnwIIL1fz-31" value="&lt;font style=&quot;vertical-align: inherit; font-size: 16px;&quot;&gt;&lt;font style=&quot;vertical-align: inherit; font-size: 16px;&quot;&gt;&lt;font style=&quot;vertical-align: inherit; font-size: 16px;&quot;&gt;&lt;font style=&quot;vertical-align: inherit; font-size: 16px;&quot;&gt;&lt;font style=&quot;vertical-align: inherit; font-size: 16px;&quot;&gt;&lt;font style=&quot;vertical-align: inherit; font-size: 16px;&quot;&gt;&lt;font style=&quot;vertical-align: inherit; font-size: 16px;&quot;&gt;&lt;font style=&quot;vertical-align: inherit; font-size: 16px;&quot;&gt;256 * 50 * 96&lt;/font&gt;&lt;/font&gt;&lt;/font&gt;&lt;/font&gt;&lt;/font&gt;&lt;/font&gt;&lt;/font&gt;&lt;/font&gt;" style="text;html=1;strokeColor=none;fillColor=none;align=center;verticalAlign=middle;whiteSpace=wrap;rounded=0;fontFamily=Times New Roman;fontSize=16;" vertex="1" parent="1">
          <mxGeometry x="710" y="585" width="100" height="20" as="geometry" />
        </mxCell>
        <mxCell id="oBfR3ffEFmptnwIIL1fz-32" value="&lt;font style=&quot;font-size: 19px&quot;&gt;R1&lt;/font&gt;" style="text;html=1;strokeColor=none;fillColor=none;align=center;verticalAlign=middle;whiteSpace=wrap;rounded=0;fontFamily=Times New Roman;" vertex="1" parent="1">
          <mxGeometry x="130" y="610" width="40" height="20" as="geometry" />
        </mxCell>
        <mxCell id="oBfR3ffEFmptnwIIL1fz-33" value="R2" style="text;html=1;strokeColor=none;fillColor=none;align=center;verticalAlign=middle;whiteSpace=wrap;rounded=0;fontFamily=Times New Roman;fontSize=19;" vertex="1" parent="1">
          <mxGeometry x="400" y="610" width="40" height="20" as="geometry" />
        </mxCell>
        <mxCell id="oBfR3ffEFmptnwIIL1fz-35" value="&lt;font style=&quot;font-size: 19px&quot;&gt;R1&lt;/font&gt;" style="text;html=1;strokeColor=none;fillColor=none;align=center;verticalAlign=middle;whiteSpace=wrap;rounded=0;fontFamily=Times New Roman;" vertex="1" parent="1">
          <mxGeometry x="669" y="640" width="40" height="20" as="geometry" />
        </mxCell>
        <mxCell id="oBfR3ffEFmptnwIIL1fz-36" value="&lt;font style=&quot;font-size: 19px&quot;&gt;R2&lt;/font&gt;" style="text;html=1;strokeColor=none;fillColor=none;align=center;verticalAlign=middle;whiteSpace=wrap;rounded=0;fontFamily=Times New Roman;" vertex="1" parent="1">
          <mxGeometry x="767" y="640" width="40" height="20" as="geometry" />
        </mxCell>
      </root>
    </mxGraphModel>
  </diagram>
</mxfile>
